<?xml version="1.0" encoding="UTF-8"?><svg id="BACKGROUND" xmlns="http://www.w3.org/2000/svg" viewBox="0 0 900 900"><path d="M447.8,392.52c-.2,0-.4,0-.6-.01-5.12-.21-9.69-2.98-12.23-7.43l-18.34-32.17c-2.55-4.47-2.57-10.03-.06-14.52l22.24-39.73c2.69-4.82,7.8-7.64,13.31-7.54,5.51,.16,10.44,3.34,12.85,8.31l18.76,38.65c2.3,4.74,1.89,10.4-1.08,14.75l-22.65,33.26c-2.77,4.07-7.29,6.45-12.18,6.45Zm-18.02-46.93l18.03,31.62,22.3-32.74-18.44-37.99-21.89,39.1Z"/><path d="M581.13,608.89c-32.64,0-62.77-16-81.07-43.23l-50.06-74.48-50.06,74.48c-18.89,28.1-50.35,44.25-84.2,43.18-33.84-1.06-64.25-19.14-81.34-48.36l-109.68-187.52c-5.8-9.92-5.85-21.78-.13-31.75,5.71-9.96,15.98-15.91,27.47-15.91h170.24c27.19,0,52.48,13.47,67.65,36.04l60.06,89.36,60.06-89.36c15.17-22.57,40.46-36.04,67.65-36.04h170.24c11.49,0,21.76,5.95,27.47,15.91,5.71,9.96,5.66,21.83-.13,31.75l-109.68,187.52c-17.09,29.22-47.5,47.3-81.34,48.36-1.04,.03-2.09,.05-3.13,.05Zm-117.53-137.95l55.2,82.12c14.53,21.61,38.78,34.04,64.76,33.21,26.03-.82,49.41-14.72,62.56-37.2l109.68-187.52c2.4-4.1,.83-7.74,.04-9.12-.79-1.37-3.13-4.57-7.89-4.57h-170.24c-19.66,0-37.95,9.74-48.91,26.06l-65.2,97Zm-311.55-123.06c-4.75,0-7.1,3.2-7.89,4.57-.79,1.37-2.36,5.01,.04,9.12l109.68,187.52c13.15,22.48,36.53,36.38,62.56,37.2,26.04,.76,50.24-11.61,64.76-33.21l55.2-82.12-65.2-97c-10.97-16.32-29.25-26.06-48.91-26.06H152.05Z"/><path d="M450,606.49c-38.04,0-72.45-19.47-92.05-52.07l-127.44-212c-3.21-5.34-1.48-12.28,3.86-15.49,5.34-3.22,12.28-1.48,15.49,3.86l127.44,212c15.48,25.75,42.66,41.13,72.71,41.13s57.23-15.37,72.71-41.13l127.44-212c3.21-5.34,10.15-7.08,15.49-3.86,5.34,3.21,7.07,10.15,3.86,15.49l-127.44,212c-19.6,32.6-54.01,52.07-92.05,52.07Z"/></svg>