<?xml version="1.0" encoding="UTF-8"?><svg width="150" height="200" xmlns="http://www.w3.org/2000/svg" xmlns:xlink="http://www.w3.org/1999/xlink" viewBox="0 0 900 900"><defs><style>.cls-1{stroke:url(#linear-gradient-24);}.cls-1,.cls-2,.cls-3,.cls-4,.cls-5,.cls-6,.cls-7,.cls-8,.cls-9,.cls-10,.cls-11,.cls-12,.cls-13,.cls-14,.cls-15,.cls-16,.cls-17,.cls-18,.cls-19,.cls-20,.cls-21,.cls-22,.cls-23,.cls-24,.cls-25,.cls-26,.cls-27,.cls-28,.cls-29,.cls-30,.cls-31,.cls-32,.cls-33{fill:none;}.cls-1,.cls-2,.cls-3,.cls-4,.cls-5,.cls-6,.cls-7,.cls-8,.cls-9,.cls-10,.cls-11,.cls-12,.cls-13,.cls-14,.cls-15,.cls-16,.cls-17,.cls-18,.cls-19,.cls-20,.cls-21,.cls-22,.cls-23,.cls-24,.cls-26,.cls-27,.cls-28,.cls-29,.cls-30,.cls-31,.cls-32,.cls-33{stroke-miterlimit:10;stroke-width:2.93px;}.cls-34{fill:#242948;}.cls-2{stroke:url(#linear-gradient-21);}.cls-3{stroke:url(#linear-gradient-19);}.cls-4{stroke:url(#linear-gradient-13);}.cls-5{stroke:url(#linear-gradient-25);}.cls-6{stroke:url(#linear-gradient-3);}.cls-7{stroke:url(#linear-gradient-17);}.cls-8{stroke:url(#linear-gradient-7);}.cls-9{stroke:url(#linear-gradient-23);}.cls-10{stroke:url(#linear-gradient-12);}.cls-11{stroke:url(#linear-gradient-20);}.cls-12{stroke:url(#linear-gradient);}.cls-35{fill:#c9ac8f;}.cls-13{stroke:url(#linear-gradient-2);}.cls-36{isolation:isolate;}.cls-14{stroke:url(#linear-gradient-26);}.cls-15{stroke:url(#linear-gradient-30);}.cls-16{stroke:url(#linear-gradient-27);}.cls-17{stroke:url(#linear-gradient-18);}.cls-18{stroke:url(#linear-gradient-10);}.cls-19{stroke:url(#linear-gradient-14);}.cls-20{stroke:url(#linear-gradient-16);}.cls-21{stroke:url(#linear-gradient-32);}.cls-22{stroke:url(#linear-gradient-29);}.cls-23{stroke:url(#linear-gradient-6);}.cls-37{opacity:.1;}.cls-38{clip-path:url(#clippath);}.cls-24{stroke:url(#linear-gradient-4);}.cls-26{stroke:url(#linear-gradient-9);}.cls-27{stroke:url(#linear-gradient-31);}.cls-28{stroke:url(#linear-gradient-15);}.cls-29{stroke:url(#linear-gradient-8);}.cls-30{stroke:url(#linear-gradient-28);}.cls-31{stroke:url(#linear-gradient-5);}.cls-39{mix-blend-mode:multiply;}.cls-32{stroke:url(#linear-gradient-11);}.cls-33{stroke:url(#linear-gradient-22);}</style><clipPath id="clippath"><rect class="cls-25" x="-1124.43" y="-43.7" width="1228.4" height="1328.79"/></clipPath><linearGradient id="linear-gradient" x1="-1054.38" y1="200.32" x2="916.76" y2="200.32" gradientTransform="translate(-241.09 173.84) rotate(-4.49)" gradientUnits="userSpaceOnUse"><stop offset="0" stop-color="#863a8e"/><stop offset="1" stop-color="#863a8e"/></linearGradient><linearGradient id="linear-gradient-2" x1="-1051.48" y1="226.71" x2="889.09" y2="226.71" gradientTransform="translate(-241.09 173.84) rotate(-4.49)" xlink:href="#linear-gradient"/><linearGradient id="linear-gradient-3" x1="-1047.2" y1="249.11" x2="863.69" y2="249.11" gradientTransform="translate(-241.09 173.84) rotate(-4.49)" xlink:href="#linear-gradient"/><linearGradient id="linear-gradient-4" x1="-1043.03" y1="271.48" x2="838.42" y2="271.48" gradientTransform="translate(-241.09 173.84) rotate(-4.49)" xlink:href="#linear-gradient"/><linearGradient id="linear-gradient-5" x1="-1038.96" y1="293.81" x2="813.28" y2="293.81" gradientTransform="translate(-241.09 173.84) rotate(-4.49)" xlink:href="#linear-gradient"/><linearGradient id="linear-gradient-6" x1="-1035.02" y1="316.11" x2="788.3" y2="316.11" gradientTransform="translate(-241.09 173.84) rotate(-4.49)" xlink:href="#linear-gradient"/><linearGradient id="linear-gradient-7" x1="-1031.2" y1="338.36" x2="763.49" y2="338.36" gradientTransform="translate(-241.09 173.84) rotate(-4.49)" xlink:href="#linear-gradient"/><linearGradient id="linear-gradient-8" x1="-1027.51" y1="360.57" x2="738.88" y2="360.57" gradientTransform="translate(-241.09 173.84) rotate(-4.49)" xlink:href="#linear-gradient"/><linearGradient id="linear-gradient-9" x1="-1023.96" y1="382.72" x2="714.49" y2="382.72" gradientTransform="translate(-241.09 173.84) rotate(-4.49)" xlink:href="#linear-gradient"/><linearGradient id="linear-gradient-10" x1="-1020.56" y1="404.8" x2="690.37" y2="404.8" gradientTransform="translate(-241.09 173.84) rotate(-4.49)" xlink:href="#linear-gradient"/><linearGradient id="linear-gradient-11" x1="-1017.32" y1="426.82" x2="666.56" y2="426.82" gradientTransform="translate(-241.09 173.84) rotate(-4.49)" xlink:href="#linear-gradient"/><linearGradient id="linear-gradient-12" x1="-1014.24" y1="448.74" x2="643.11" y2="448.74" gradientTransform="translate(-241.09 173.84) rotate(-4.49)" xlink:href="#linear-gradient"/><linearGradient id="linear-gradient-13" x1="-1011.34" y1="470.57" x2="620.09" y2="470.57" gradientTransform="translate(-241.09 173.84) rotate(-4.49)" xlink:href="#linear-gradient"/><linearGradient id="linear-gradient-14" x1="-1008.64" y1="492.27" x2="597.61" y2="492.27" gradientTransform="translate(-241.09 173.84) rotate(-4.49)" xlink:href="#linear-gradient"/><linearGradient id="linear-gradient-15" x1="-1006.13" y1="513.83" x2="575.79" y2="513.83" gradientTransform="translate(-241.09 173.84) rotate(-4.49)" xlink:href="#linear-gradient"/><linearGradient id="linear-gradient-16" x1="-1003.84" y1="535.28" x2="554.48" y2="535.28" gradientTransform="translate(-241.09 173.84) rotate(-4.49)" xlink:href="#linear-gradient"/><linearGradient id="linear-gradient-17" x1="-1001.78" y1="556.55" x2="533.17" y2="556.55" gradientTransform="translate(-241.09 173.84) rotate(-4.49)" xlink:href="#linear-gradient"/><linearGradient id="linear-gradient-18" x1="-999.97" y1="577.56" x2="511.85" y2="577.56" gradientTransform="translate(-241.09 173.84) rotate(-4.49)" xlink:href="#linear-gradient"/><linearGradient id="linear-gradient-19" x1="-998.42" y1="598.22" x2="490.5" y2="598.22" gradientTransform="translate(-241.09 173.84) rotate(-4.49)" xlink:href="#linear-gradient"/><linearGradient id="linear-gradient-20" x1="-997.15" y1="618.42" x2="469.11" y2="618.42" gradientTransform="translate(-241.09 173.84) rotate(-4.49)" xlink:href="#linear-gradient"/><linearGradient id="linear-gradient-21" x1="-996.18" y1="637.96" x2="447.66" y2="637.96" gradientTransform="translate(-241.09 173.84) rotate(-4.49)" xlink:href="#linear-gradient"/><linearGradient id="linear-gradient-22" x1="-995.53" y1="656.5" x2="426.16" y2="656.5" gradientTransform="translate(-241.09 173.84) rotate(-4.49)" xlink:href="#linear-gradient"/><linearGradient id="linear-gradient-23" x1="-995.23" y1="673.38" x2="404.61" y2="673.38" gradientTransform="translate(-241.09 173.84) rotate(-4.49)" xlink:href="#linear-gradient"/><linearGradient id="linear-gradient-24" x1="-995.3" y1="686.74" x2="383.05" y2="686.74" gradientTransform="translate(-241.09 173.84) rotate(-4.49)" xlink:href="#linear-gradient"/><linearGradient id="linear-gradient-25" x1="-995.77" y1="693.79" x2="361.49" y2="693.79" gradientTransform="translate(-241.09 173.84) rotate(-4.49)" xlink:href="#linear-gradient"/><linearGradient id="linear-gradient-26" x1="-996.67" y1="708.9" x2="340.1" y2="708.9" gradientTransform="translate(-241.09 173.84) rotate(-4.49)" xlink:href="#linear-gradient"/><linearGradient id="linear-gradient-27" x1="-998.02" y1="727.56" x2="318.98" y2="727.56" gradientTransform="translate(-241.09 173.84) rotate(-4.49)" xlink:href="#linear-gradient"/><linearGradient id="linear-gradient-28" x1="-999.87" y1="746.26" x2="297.83" y2="746.26" gradientTransform="translate(-241.09 173.84) rotate(-4.49)" xlink:href="#linear-gradient"/><linearGradient id="linear-gradient-29" x1="-1002.24" y1="765" x2="276.65" y2="765" gradientTransform="translate(-241.09 173.84) rotate(-4.49)" xlink:href="#linear-gradient"/><linearGradient id="linear-gradient-30" x1="-1005.17" y1="783.79" x2="255.44" y2="783.79" gradientTransform="translate(-241.09 173.84) rotate(-4.49)" xlink:href="#linear-gradient"/><linearGradient id="linear-gradient-31" x1="-1008.7" y1="802.64" x2="234.22" y2="802.64" gradientTransform="translate(-241.09 173.84) rotate(-4.49)" xlink:href="#linear-gradient"/><linearGradient id="linear-gradient-32" x1="-1012.88" y1="821.58" x2="212.98" y2="821.58" gradientTransform="translate(-241.09 173.84) rotate(-4.49)" xlink:href="#linear-gradient"/></defs><g class="cls-36"><g id="BACKGROUND"><g class="cls-39"><g class="cls-38"><g class="cls-37"><path class="cls-12" d="M-1218.32,148.08c-349.19-478.66,278.65-917.2,697.68-541.32,165.48,123.26,364.36,672.12,18.94,738.14-230.78,37.56-307.06-190.02-201.53-334.54C-615.56-113.31-118.31-230.16,8.46-103.87,196.34,56.58,12.25,440.82,203.17,639.95c168.49,161.96,272.52-1.91,396.25,85.7,162.46,84.58,165.88,376.27,119.92,535.58"/><path class="cls-13" d="M-1210.82,155.65c-349.23-456.74,245.2-858.06,673.31-510.18,158.08,128.46,361.74,658.3,30.24,719.51-219.97,40.62-292.1-181.13-189.43-319.36C-610.86-70.29-136.89-174.54-9.72-53.97,133.21,81.55,47.95,349.64,114.49,551.93c14.76,44.88,36.31,86.83,71.35,121.4,162.18,159.99,262.39,6.26,389.47,81.59,153.97,91.28,165.58,360.86,123.24,513.59"/><path class="cls-6" d="M-1203.31,163.23c-349.27-434.82,228.42-818.37,648.93-479.03,156.46,126.26,358.23,639.72,41.54,700.88-209.7,40.5-277.96-172.87-177.32-304.18C-606.84-27.8-150.73-123.89-27.9-4.08,109.51,129.98,28.84,391.19,97.39,588.87c15.12,43.6,36.6,84.3,71.12,117.83,159.21,154.62,257.94,5.8,382.7,77.49,151.62,87.12,165.28,345.46,126.55,491.6"/><path class="cls-24" d="M-1195.81,170.8c-349.31-412.9,211.64-778.69,624.56-447.88,154.84,124.05,354.72,621.13,52.84,682.26-199.43,40.38-263.94-164.74-165.22-289C-602.89,14.58-164.56-73.26-46.09,45.82,85.8,178.39,9.7,432.72,80.29,625.82c15.47,42.31,36.88,81.77,70.89,114.25,156.22,149.26,253.49,5.34,375.92,73.39,149.27,82.96,164.98,330.06,129.87,469.61"/><path class="cls-31" d="M-1188.3,178.37c-349.35-390.98,194.88-739.03,600.18-416.74,153.23,121.84,351.2,602.53,64.14,663.63-189.16,40.26-249.95-156.68-153.11-273.81C-598.93,56.92-178.39-22.64-64.27,95.71,62.11,226.78-9.46,474.24,63.19,662.77c15.81,41.02,37.17,79.23,70.66,110.68,153.23,143.89,249.04,4.88,369.15,69.28,146.93,78.79,164.68,314.66,133.18,447.62"/><path class="cls-23" d="M-1180.8,185.95c-349.4-369.07,178.12-699.37,575.81-385.59,151.62,119.63,347.68,583.93,75.44,645.01-178.9,40.13-235.97-148.69-141.01-258.63C-594.94,99.19-192.22,27.96-82.45,145.61,38.41,275.15-28.64,515.75,46.09,699.71c16.14,39.73,37.45,76.7,70.43,107.11,150.22,138.53,244.6,4.41,362.37,65.18,144.59,74.62,164.38,299.26,136.49,425.63"/><path class="cls-8" d="M-1173.29,193.52c-349.44-347.15,161.38-659.73,551.44-354.44,150.01,117.41,344.15,565.32,86.74,626.38-168.64,40-222-140.78-128.9-243.45,73.09-80.6,457.96-143.46,563.38-26.5C14.73,323.5-47.86,557.24,28.99,736.66c16.47,38.44,37.73,74.17,70.2,103.54,147.2,133.17,240.17,3.93,355.6,61.08,142.26,70.43,164.08,283.85,139.81,403.64"/><path class="cls-29" d="M-1165.78,201.09C-1515.26-124.13-1021.14-419.01-638.72-122.2-490.31-7.02-298.11,424.5-540.68,485.55c-158.39,39.87-208.05-132.98-116.8-228.27,70.62-73.74,437.6-128.17,538.66-11.88C-8.95,371.82-67.11,598.73,11.89,773.61c16.78,37.15,38.01,71.63,69.97,99.97,144.17,127.81,235.74,3.44,348.82,56.98,139.93,66.24,163.78,268.45,143.12,381.65"/><path class="cls-26" d="M-1158.28,208.67c-349.52-303.31,127.92-580.49,502.69-292.15C-508.78,29.47-318.53,444.59-546.25,505.65c-148.14,39.72-194.1-125.29-104.69-213.09,68.2-66.98,417.24-112.9,513.94,2.74C-32.62,420.12-86.4,640.21-5.21,810.55c17.09,35.86,38.28,69.1,69.74,96.4,141.13,122.46,231.31,2.95,342.05,52.87,137.61,62.04,163.48,253.05,146.44,359.66"/><path class="cls-18" d="M-1150.77,216.24c-349.56-281.39,111.2-540.89,478.32-261,145.22,110.71,333.5,509.42,120.64,570.5-137.91,39.57-180.14-117.74-92.59-197.91,65.87-60.32,396.9-97.65,489.22,17.36,98.91,123.21,49.46,336.49,132.87,502.31,17.39,34.57,38.55,66.57,69.51,92.82,138.07,117.12,226.89,2.45,335.27,48.77,135.3,57.82,163.18,237.65,149.75,337.67"/><path class="cls-32" d="M-1143.27,223.81C-1492.87-35.65-1048.77-277.5-689.33-6.04c143.63,108.47,329.91,490.77,131.94,551.88-127.68,39.42-166.14-110.34-80.48-182.73,63.64-53.79,376.56-82.42,464.5,31.98,93.45,121.57,48.27,328.06,133.95,489.36,17.68,33.28,38.84,64.01,69.28,89.25,135.08,111.67,222.47,1.93,328.5,44.67,132.98,53.6,162.88,222.25,153.07,315.67"/><path class="cls-10" d="M-1135.76,231.39C-1485.41-6.16-1057.96-230.36-706.19,32.68c142.04,106.21,326.21,471.79,143.24,533.25-117.54,39.06-152.08-103.1-68.38-167.55,61.55-47.4,356.23-67.22,439.78,46.6,88.01,119.9,47.04,319.64,135.03,476.42,17.96,31.99,39.05,61.54,69.05,85.68,131.74,106.64,218.05,1.41,321.72,40.56,130.68,49.35,162.58,206.85,156.38,293.68"/><path class="cls-4" d="M-1128.26,238.96c-349.68-215.63,61.12-422.2,405.19-167.56,140.46,103.95,322.74,453.58,154.54,514.63-107.25,39.2-137.89-96.04-56.27-152.37,59.66-41.17,335.92-52.04,415.06,61.21,82.59,118.2,45.77,311.22,136.12,463.47,18.22,30.71,39.35,58.97,68.82,82.11,128.78,101.12,213.64,.87,314.95,36.46,128.37,45.09,162.28,191.44,159.69,271.69"/><path class="cls-19" d="M-1120.75,246.53c-349.73-193.71,44.45-382.67,380.82-136.42,138.89,101.68,318.99,434.67,165.84,496-97.13,38.89-112.55-74.49-44.17-137.19,63.78-23.06,315.63-36.89,390.34,75.83,77.19,116.47,44.44,302.8,137.2,450.52,18.48,29.42,39.6,56.44,68.59,78.54,125.65,95.8,209.22,.32,308.17,32.36,126.07,40.82,161.98,176.04,163.01,249.7"/><path class="cls-28" d="M-1113.25,254.11c-349.77-171.79,27.79-343.16,356.45-105.27,137.33,99.4,315.26,415.93,177.14,477.38-87,38.7-97.59-65.6-32.06-122.01,61.94-15.32,295.36-21.77,365.62,90.45,71.82,114.71,43.06,294.4,138.28,437.57,18.72,28.14,39.86,53.91,68.36,74.97,122.5,90.5,204.81-.24,301.4,28.26,123.77,36.52,161.68,160.64,166.32,227.71"/><path class="cls-20" d="M-1105.74,261.68c-349.81-149.87,11.14-303.68,332.07-74.12,135.77,97.11,311.46,397.17,188.44,458.75-76.92,38.51-82.63-56.72-19.96-106.83,60.1-7.58,275.11-6.67,340.9,105.07,66.48,112.92,41.62,286.03,139.36,424.62,18.95,26.87,40.1,51.38,68.13,71.39,119.32,85.21,200.4-.83,294.62,24.15,121.47,32.2,161.38,145.24,169.64,205.72"/><path class="cls-7" d="M-1098.24,269.25c-349.85-127.95-5.5-264.21,307.7-42.97,134.21,94.8,307.56,378.4,199.74,440.13-66.91,38.31-67.67-47.83-7.85-91.64,58.27,.16,254.9,8.4,316.18,119.69,61.18,111.11,40.12,277.67,140.44,411.68,19.16,25.6,40.35,48.85,67.9,67.82,116.12,79.94,195.98-1.43,287.85,20.05,119.17,27.86,161.08,129.84,172.95,183.73"/><path class="cls-17" d="M-1090.73,276.83c-349.89-106.03-22.13-224.77,283.33-11.83,132.67,92.49,303.52,359.62,211.04,421.5-56.98,38.13-52.71-38.94,4.25-76.46,56.43,7.89,234.73,23.45,291.46,134.31,55.91,109.27,38.56,269.36,141.53,398.73,19.37,24.34,40.58,46.33,67.67,64.25,112.89,74.68,191.57-2.04,281.07,15.95,116.86,23.49,160.78,114.43,176.27,161.74"/><path class="cls-3" d="M-1083.22,284.4c-349.93-84.11-38.74-185.36,258.95,19.32,131.13,90.16,299.3,340.9,222.34,402.87-47.18,38-37.74-30.06,16.36-61.28,54.59,15.63,214.6,38.47,266.74,148.93,50.69,107.4,36.93,261.09,142.61,385.78,19.56,23.08,40.81,43.81,67.44,60.68,109.63,69.45,187.14-2.68,274.3,11.84,114.54,19.09,160.48,99.03,179.58,139.75"/><path class="cls-11" d="M-1075.72,291.97c-349.97-62.19-55.35-145.97,234.58,50.47,129.6,87.81,294.85,322.32,233.64,384.25-37.53,37.97-22.78-21.17,28.46-46.1,52.75,23.37,194.53,53.47,242.02,163.55,45.52,105.51,35.25,252.88,143.69,372.83,19.74,21.84,41.04,41.3,67.21,57.11,106.35,64.24,182.71-3.34,267.52,7.74,112.22,14.66,160.18,83.63,182.89,117.76"/><path class="cls-2" d="M-1068.21,299.55c-350.01-40.27-71.94-106.61,210.2,81.61,128.08,85.44,290.19,304.06,244.94,365.62-28.04,38.16-7.82-12.28,40.57-30.92,50.92,31.11,174.51,68.45,217.3,178.17,40.41,103.61,33.49,244.73,144.77,359.88,19.91,20.61,41.26,38.79,66.98,53.54,103.03,59.07,178.26-4.02,260.75,3.64,109.88,10.2,159.88,68.23,186.21,95.77"/><path class="cls-33" d="M-1060.71,307.12c-350.05-18.35-88.52-67.28,185.83,112.76,126.57,83.06,285.46,286.37,256.24,347-18.66,38.72,7.14-3.4,52.67-15.74,49.08,38.85,154.56,83.41,192.58,192.79,35.35,101.69,31.68,236.65,145.86,346.94,20.07,19.39,41.47,36.29,66.75,49.96,99.68,53.92,173.8,3.84,253.97-.46,107.52-5.78,159.58,52.83,189.52,73.77"/><path class="cls-9" d="M-1053.2,314.7c-350.1,3.57-105.1-27.98,161.46,143.91,125.07,80.65,281.08,269.42,267.54,328.37-9.13,39.76,22.1,5.49,64.78-.56,47.24,46.59,134.69,98.37,167.87,207.41,30.36,99.77,29.81,228.67,146.94,333.99,20.23,18.19,41.67,33.79,66.52,46.39,96.3,48.82,169.61,2.32,247.2-4.57,104.73-9.3,159.28,37.43,192.84,51.78"/><path class="cls-1" d="M-1045.7,322.27c-350.14,25.49-121.66,11.28,137.08,175.05,123.58,78.22,277.56,252.98,278.85,309.75,.93,41.13,37.07,14.38,76.88,14.62,45.4,54.33,114.9,113.33,143.15,222.03,25.43,97.85,27.89,220.79,148.02,321.04,20.37,17,41.86,31.31,66.29,42.82,92.88,43.77,165.35,.75,240.42-8.67,101.97-12.8,158.98,22.02,196.15,29.79"/><path class="cls-5" d="M-1038.19,329.84c-350.18,47.41-138.21,50.5,112.71,206.2,122.1,75.76,275.01,236.38,290.15,291.12,11.71,42.38,52.03,23.26,88.99,29.8,43.57,62.06,95.19,128.3,118.43,236.65,20.58,95.95,25.92,213.03,149.1,308.09,20.51,15.83,42.05,28.84,66.06,39.25,89.43,38.77,160.26-6.95,233.65-12.77,100.26-7.96,158.68,6.62,199.47,7.8"/><path class="cls-14" d="M-1030.69,337.42c-350.22,69.33-154.76,89.69,88.33,237.35,120.63,73.27,272.96,219.08,301.45,272.49,22.98,43.1,66.99,32.15,101.09,44.98,41.73,69.8,75.58,143.29,93.71,251.27,15.79,94.08,23.92,205.38,150.19,295.14,20.65,14.68,42.23,26.39,65.83,35.68,85.95,33.83,155.69-7.72,226.87-16.88,97.76-12.57,158.38-8.78,202.78-14.19"/><path class="cls-16" d="M-1023.18,344.99c-350.26,91.24-171.31,128.82,63.96,268.49,119.17,70.75,270.89,201.07,312.75,253.87,34.31,43.28,81.95,41.04,113.2,60.16,39.89,77.54,56.07,158.31,68.99,265.89,11.07,92.24,21.89,197.88,151.27,282.2,20.78,13.54,42.4,23.95,65.6,32.1,82.45,28.96,151.07-8.51,220.1-20.98,95.21-17.2,158.08-24.18,206.09-36.18"/><path class="cls-30" d="M-1015.68,352.56c-350.3,113.16-187.84,167.92,39.59,299.64,117.73,68.19,268.54,182.61,324.05,235.24,45.47,43.12,96.92,49.92,125.3,75.34,38.05,85.28,36.66,173.38,44.27,280.51,6.42,90.45,19.85,190.52,152.35,269.25,20.92,12.43,42.56,21.55,65.37,28.53,78.92,24.18,146.41-9.3,213.32-25.08,92.61-21.85,157.78-39.58,209.41-58.17"/><path class="cls-22" d="M-1008.17,360.14c-350.34,135.08-204.38,206.96,15.21,330.79,116.31,65.58,265.9,163.92,335.35,216.62,56.42,42.81,117.02,55.28,137.41,90.52,49.99,86.4,17.34,188.52,19.55,295.13,1.84,88.73,17.81,183.3,153.43,256.3,21.06,11.34,42.72,19.17,65.14,24.96,75.39,19.49,141.7-10.09,206.55-29.19,89.94-26.49,157.48-54.99,212.72-80.16"/><path class="cls-15" d="M-1000.66,367.71c-350.38,157-220.92,245.95-9.16,361.93,114.9,62.93,263.03,145.15,346.65,197.99,67.18,42.46,130.93,65.54,149.51,105.71,44.7,96.62-1.89,203.74-5.17,309.75-2.7,87.09,15.79,176.24,154.51,243.35,21.21,10.26,42.88,16.83,64.91,21.39,71.87,14.89,136.95-10.87,199.77-33.29,87.22-31.13,157.18-70.39,216.04-102.15"/><path class="cls-27" d="M-993.16,375.28c-350.42,178.92-237.47,284.88-33.53,393.08,113.5,60.22,259.99,126.35,357.95,179.37,77.82,42.11,144.7,75.4,161.62,120.89,39.48,106.17-21.04,219.05-29.89,324.37-7.19,85.53,13.82,169.33,155.6,230.4,21.38,9.21,43.05,14.52,64.68,17.82,68.37,10.41,132.14-11.63,193-37.39,84.43-35.74,156.88-85.79,219.35-124.14"/><path class="cls-21" d="M-985.65,382.86c-708.3,405.91,408.78,493.45,485.06,721.04,55.4,209.74-219.81,425.99,102.07,556.44,180.31,63.72,343.91-85.36,473.34-173.38"/></g></g></g><rect class="cls-34" x="-10" y="-10" width="919.14" height="919.14"/></g><g id="DESIGN"><g><g><g><path class="cls-35" d="M230.18,426.03c-.08,0-.17,0-.25,0-2.14-.09-4.05-1.25-5.12-3.11l-7.67-13.46c-1.07-1.87-1.07-4.19-.02-6.07l9.3-16.62c1.13-2.01,3.26-3.2,5.57-3.16,2.31,.07,4.37,1.4,5.37,3.47l7.84,16.16c.96,1.98,.79,4.35-.45,6.17l-9.48,13.91c-1.16,1.7-3.05,2.7-5.1,2.7Zm-7.54-19.63l7.54,13.23,9.33-13.69-7.71-15.89-9.15,16.36Z"/><path class="cls-35" d="M285.95,516.53c-13.65,0-26.25-6.69-33.91-18.08l-20.94-31.15-20.94,31.15c-7.9,11.75-21.06,18.51-35.22,18.06-14.15-.44-26.87-8-34.02-20.23l-45.88-78.43c-2.43-4.15-2.45-9.11-.06-13.28,2.39-4.17,6.69-6.66,11.49-6.66h71.21c11.37,0,21.95,5.64,28.3,15.07l25.12,37.38,25.12-37.38c6.35-9.44,16.92-15.07,28.3-15.07h71.21c4.8,0,9.1,2.49,11.49,6.66,2.39,4.17,2.37,9.13-.06,13.28l-45.88,78.43c-7.15,12.22-19.87,19.78-34.02,20.23-.44,.01-.87,.02-1.31,.02Zm-49.16-57.7l23.09,34.35c6.08,9.04,16.22,14.24,27.09,13.89,10.89-.34,20.67-6.16,26.17-15.56l45.88-78.43c1-1.72,.35-3.24,.02-3.81-.33-.57-1.31-1.91-3.3-1.91h-71.21c-8.22,0-15.87,4.07-20.46,10.9l-27.27,40.57Zm-130.31-51.47c-1.99,0-2.97,1.34-3.3,1.91-.33,.57-.99,2.1,.02,3.81l45.88,78.43c5.5,9.4,15.28,15.22,26.17,15.56,10.89,.32,21.01-4.85,27.09-13.89l23.09-34.35-27.27-40.57c-4.59-6.83-12.24-10.9-20.46-10.9H106.48Z"/><path class="cls-35" d="M231.1,515.53c-15.91,0-30.31-8.14-38.5-21.78l-53.31-88.67c-1.34-2.23-.62-5.14,1.61-6.48,2.24-1.35,5.14-.62,6.48,1.61l53.31,88.67c6.47,10.77,17.84,17.2,30.41,17.2s23.94-6.43,30.41-17.2l53.31-88.67c1.34-2.23,4.24-2.96,6.48-1.61,2.24,1.34,2.96,4.24,1.61,6.48l-53.31,88.67c-8.2,13.64-22.59,21.78-38.5,21.78Z"/></g><path class="cls-35" d="M435.21,497.69c-4.02,0-7.67-.48-10.85-1.42-3.2-.95-5.97-2.08-8.25-3.38-2.28-1.3-4.12-2.62-5.47-3.94-1.24-1.2-1.88-2.02-2.2-2.55l.08-.08,.09-.14c.57-.84,1.32-1.63,2.12-2.21,.6-.35,1.36-.57,2.14-.57,.44,0,.89,.07,1.34,.21,.52,.16,1.08,.35,1.71,.59l.1,.04,.1,.02c.51,.13,1.11,.34,1.71,.59,.63,.28,1.34,.61,2.14,1.01,1.71,.69,3.68,1.29,5.85,1.82,2.21,.53,4.91,.88,8.02,1.05h1.37c3.05,0,5.7-.36,7.87-1.07,2.18-.71,3.98-1.66,5.35-2.81,1.39-1.17,2.4-2.49,3-3.93,.6-1.42,.91-2.8,.91-4.12,.09-2.27-.58-4.33-2.04-6.23-1.37-1.79-3.29-3.54-5.68-5.19-2.37-1.64-5.17-3.32-8.31-5.01-3.15-1.69-6.5-3.51-10.04-5.45-5.66-3.23-9.94-6.88-12.69-10.84-2.7-3.9-3.88-8.06-3.5-12.38,.31-3.25,1.21-6.11,2.67-8.5,1.47-2.4,3.33-4.42,5.54-6.01,2.21-1.59,4.73-2.77,7.49-3.51,2.79-.75,5.64-1.12,8.45-1.12,4.81,0,9.08,.64,12.7,1.89,3.64,1.27,6.77,2.67,9.3,4.17,2.7,1.61,5.06,3.44,7.02,5.45-.81,.99-1.53,1.71-2.07,2.04-.73,.52-1.39,.73-2.16,.73-.85,0-1.85-.26-3.04-.78-.68-.26-1.34-.51-2.01-.79l-2.25-.91c-2.39-.91-4.93-1.63-7.59-2.16-2.33-.46-4.44-.7-6.26-.7-.31,0-.61,0-.9,.02h-.03c-1.01,0-2.19,.08-3.42,.25-1.26,.17-2.48,.47-3.62,.89-1.18,.44-2.24,1.06-3.15,1.84-.96,.82-1.64,1.89-2,3.17-.8,2.68-.24,5.1,1.7,7.17,1.77,1.9,4.19,3.78,7.19,5.58,2.94,1.77,6.26,3.56,9.87,5.3,3.54,1.71,6.9,3.66,10,5.81,4.25,2.99,7.46,6.08,9.54,9.18,2.07,3.08,3.35,6.13,3.81,9.07,.46,2.94,.31,5.8-.46,8.5-.78,2.74-1.89,5.19-3.29,7.29-2.49,3.9-6.26,6.91-11.21,8.97-5.01,2.09-10.63,3.15-16.71,3.15Z"/><path class="cls-35" d="M541.92,491.72c-1.46,0-2.91-.21-4.31-.62-1.49-4.7-2.94-9.21-4.36-13.53-1.21-3.86-2.42-7.81-3.63-11.85-.66-2.2-1.24-4.25-1.71-6.1l-3.37,.05-1.03,4.65c-.63,2.85-1.32,5.6-2.05,8.19-.72,2.54-1.46,4.93-2.23,7.1-.75,2.13-1.52,3.92-2.31,5.33-1.21,2.19-2.69,3.76-4.4,4.65-1.76,.91-3.49,1.45-5.15,1.61-.63,.07-1.22,.11-1.82,.11-1.29,0-2.62-.16-3.95-.47-.57-1.43-1.37-3.35-2.4-5.76-1.13-2.62-2.36-5.54-3.69-8.77-1.33-3.23-2.72-6.62-4.18-10.17l-7.81-19.13c-1.08-2.66-1.91-4.71-2.48-6.16-.82-1.65-1.47-3.06-1.94-4.24-.19-.43-.37-.87-.54-1.31,1.52-.3,2.99-.45,4.38-.45,.48,0,.95,.02,1.42,.05,1.75,.15,3.55,.68,5.35,1.56,1.71,.84,3.11,2.48,4.16,4.88,.31,.85,.78,2.05,1.39,3.55,.6,1.49,1.25,3.12,1.93,4.89,.68,1.78,1.41,3.64,2.18,5.58,.76,1.93,1.51,3.86,2.23,5.79,1.45,3.64,2.98,7.49,4.59,11.58l2.02,5.16,1.28-5.39c.96-4.05,1.9-7.85,2.81-11.43,.98-3.91,1.99-7.75,3.02-11.42,1.03-3.7,1.92-6.51,2.64-8.34,.96-2.38,2.27-4.02,3.87-4.86,1.67-.88,3.37-1.4,5.03-1.55,.43-.03,.88-.05,1.34-.05,1.43,0,2.9,.17,4.37,.52l11.41,42.46,1.9-5.03c1.52-4.02,3.04-7.94,4.52-11.63,1.54-3.88,3.03-7.69,4.48-11.45,1.42-3.66,2.55-6.48,3.38-8.38,.98-2.42,2.34-4.05,4.05-4.88,1.8-.88,3.6-1.4,5.35-1.56,.44-.03,.9-.05,1.38-.05,1.41,0,2.88,.15,4.39,.45l-8.38,21.29c-1.13,2.9-2.3,5.83-3.51,8.77-1.21,2.95-2.36,5.73-3.45,8.35-1.08,2.6-2.1,4.94-3.01,6.93-.94,2.03-1.66,3.52-2.22,4.56-1.29,2.43-2.84,4.08-4.61,4.93-1.85,.88-3.59,1.41-5.18,1.56-.37,.03-.77,.04-1.17,.04Z"/><path class="cls-35" d="M609.74,490.7c-3.58,0-6.99-.75-10.14-2.23-3.17-1.49-6-3.55-8.42-6.12-2.35-2.5-4.23-5.49-5.6-8.9-1.37-3.4-2.06-7.11-2.06-11.03s.62-7.66,1.83-11.06c1.21-3.4,2.97-6.38,5.23-8.88,2.27-2.58,5.05-4.63,8.28-6.11,3.23-1.48,6.89-2.23,10.87-2.23,3.66,0,7.11,.75,10.26,2.23,3.15,1.48,5.94,3.53,8.28,6.1,2.46,2.54,4.37,5.53,5.73,8.92,1.37,3.4,2.06,7.11,2.06,11.03s-.64,7.64-1.89,11.05c-1.26,3.4-3.04,6.39-5.29,8.88-2.27,2.58-5.05,4.63-8.28,6.11-3.23,1.48-6.89,2.23-10.87,2.23Zm0-47.7c-1.14,0-2.46,.26-3.95,.77-1.52,.52-2.99,1.5-4.37,2.92-1.36,1.4-2.52,3.41-3.44,5.97-.91,2.54-1.38,5.82-1.38,9.77s.46,7.22,1.38,9.72c.92,2.5,2.07,4.51,3.43,5.96,1.37,1.46,2.84,2.46,4.37,2.99,1.54,.53,2.76,.77,3.95,.77s2.4-.24,3.95-.77c1.53-.52,3-1.53,4.37-2.99,1.35-1.44,2.51-3.44,3.43-5.96,.91-2.49,1.38-5.76,1.38-9.71s-.46-7.24-1.37-9.77c-.93-2.56-2.09-4.57-3.45-5.97-1.38-1.42-2.85-2.4-4.37-2.92-1.48-.51-2.81-.77-3.95-.77Z"/><path class="cls-35" d="M740.15,489.36c-4.36-.12-7.74-1.12-10.05-2.96-2.42-1.93-3.64-5.19-3.64-9.68l.12-17.06c0-3.47-.36-6.3-1.07-8.43-.72-2.16-1.7-3.89-2.9-5.14-1.22-1.27-2.6-2.13-4.09-2.57-1.44-.42-2.9-.64-4.34-.64s-2.88,.22-4.28,.64c-1.46,.44-2.8,1.31-3.98,2.58-1.16,1.25-2.12,2.97-2.84,5.13-.71,2.13-1.07,4.97-1.07,8.42v18.76c0,2.47,.04,4.43,.12,5.98,.08,1.54,.16,2.77,.25,3.66,.04,.5,.08,.94,.12,1.31-4.37-.12-7.77-1.12-10.12-2.97-2.45-1.93-3.7-5.19-3.7-9.68l.12-17.07c0-3.45-.36-6.28-1.07-8.42-.73-2.17-1.7-3.89-2.91-5.14-1.22-1.26-2.6-2.13-4.09-2.57-1.44-.42-2.9-.64-4.34-.64s-2.89,.22-4.28,.64c-1.46,.44-2.8,1.31-3.98,2.58-1.17,1.25-2.1,2.98-2.78,5.15-.67,2.11-1.01,4.94-1.01,8.41v18.76c0,2.43,.02,4.42,.06,5.96,.04,1.59,.1,2.8,.18,3.68,.04,.5,.08,.94,.13,1.31-4.37-.12-7.77-1.12-10.12-2.97-2.45-1.93-3.69-5.19-3.69-9.67l.12-17.06c0-5.27,.77-9.62,2.29-12.94,1.51-3.3,3.49-5.91,5.88-7.76,2.4-1.86,5.12-3.13,8.1-3.79,3.03-.67,6.1-1.01,9.13-1.01,3.29,0,6.6,.4,9.82,1.18,2.92,.71,5.59,2.04,7.93,3.94l1.09,.89,1.09-.89c2.33-1.9,5-3.23,7.93-3.94,3.23-.78,6.53-1.18,9.83-1.18,3.03,0,6.12,.34,9.19,1,3.02,.66,5.79,1.94,8.23,3.79,2.42,1.85,4.42,4.46,5.94,7.76,1.52,3.31,2.29,7.67,2.29,12.93v18.76c0,2.43,.02,4.42,.06,5.96,.04,1.59,.1,2.79,.18,3.68,.04,.5,.08,.94,.12,1.31Z"/><path class="cls-35" d="M767.25,510.04c-1.34,0-2.75-.19-4.19-.55l6.14-14.61c1.21-2.92,2.51-6,3.9-9.25l.29-.68-1.65-3.82c-.77-1.77-1.65-3.9-2.66-6.4-1.01-2.51-2.14-5.23-3.4-8.19-1.25-2.94-2.48-5.9-3.69-8.89-2.76-6.67-5.93-14.19-9.44-22.39,1.5-.29,2.95-.44,4.32-.44,.48,0,.95,.02,1.42,.05,1.74,.15,3.55,.68,5.35,1.56,1.71,.84,3.11,2.48,4.17,4.88,.15,.38,.58,1.42,1.26,3.07,.68,1.65,1.53,3.73,2.54,6.23,1.01,2.51,2.17,5.27,3.46,8.31,1,2.35,4.59,10.84,4.59,10.84l1.6-3.76c1.13-2.65,2.21-5.19,3.24-7.63,1.29-3.07,2.44-5.81,3.45-8.23,1.01-2.43,1.82-4.44,2.43-6.02,.79-2.04,1.04-2.6,1.11-2.75,1.01-2.47,2.38-4.1,4.12-4.93,1.84-.88,3.66-1.4,5.42-1.56,.43-.03,.9-.05,1.38-.05,1.4,0,2.87,.15,4.37,.44-5.02,12.08-9.54,22.93-13.56,32.54l-5.27,12.47c-1.74,4.12-3.29,7.83-4.66,11.14-1.37,3.31-2.52,6.05-3.45,8.23-1.24,2.92-1.54,3.57-1.62,3.71-1.07,2.45-2.46,4.1-4.14,4.98-1.76,.91-3.53,1.46-5.27,1.61-.54,.06-1.06,.09-1.58,.09Z"/></g><g><path class="cls-35" d="M512.23,515.61v15.57h-4.98v-15.57h-5.84v-4.02h16.71v4.02h-5.9Z"/><path class="cls-35" d="M570.75,515.52v3.88h9.33v3.91h-9.33v3.94h10.65v3.91h-15.62v-19.56h15.32v3.91h-10.34Z"/><path class="cls-35" d="M634.59,527.57l-1.43,3.61h-5.11l8.44-19.56h5.11l8.25,19.56h-5.31l-1.4-3.61h-8.55Zm4.3-11.01l-2.85,7.24h5.65l-2.79-7.24Z"/><path class="cls-35" d="M714.29,531.17l-.03-12.72-4.7,10.76h-3.24l-4.7-10.76v12.72h-4.44v-19.59h5.45l5.31,11.65,5.31-11.65h5.42v19.59h-4.39Z"/></g></g></g></g></svg>