<?xml version="1.0" encoding="UTF-8"?><svg xmlns="http://www.w3.org/2000/svg" xmlns:xlink="http://www.w3.org/1999/xlink" viewBox="0 0 900 900"><defs><style>.cls-1{stroke:url(#linear-gradient-24);}.cls-1,.cls-2,.cls-3,.cls-4,.cls-5,.cls-6,.cls-7,.cls-8,.cls-9,.cls-10,.cls-11,.cls-12,.cls-13,.cls-14,.cls-15,.cls-16,.cls-17,.cls-18,.cls-19,.cls-20,.cls-21,.cls-22,.cls-23,.cls-24,.cls-25,.cls-26,.cls-27,.cls-28,.cls-29,.cls-30,.cls-31,.cls-32,.cls-33,.cls-34,.cls-35,.cls-36,.cls-37{fill:none;}.cls-1,.cls-2,.cls-3,.cls-4,.cls-5,.cls-6,.cls-7,.cls-8,.cls-9,.cls-10,.cls-11,.cls-12,.cls-13,.cls-14,.cls-15,.cls-16,.cls-17,.cls-18,.cls-19,.cls-20,.cls-21,.cls-22,.cls-23,.cls-24,.cls-25,.cls-26,.cls-27,.cls-29,.cls-30,.cls-31,.cls-32,.cls-33,.cls-34,.cls-35,.cls-36,.cls-37{stroke-miterlimit:10;stroke-width:2.93px;}.cls-2{stroke:url(#linear-gradient-21);}.cls-3{stroke:url(#linear-gradient-19);}.cls-4{stroke:url(#linear-gradient-13);}.cls-5{stroke:url(#linear-gradient-25);}.cls-6{stroke:url(#linear-gradient-3);}.cls-7{stroke:url(#linear-gradient-17);}.cls-8{stroke:url(#linear-gradient-7);}.cls-9{stroke:url(#linear-gradient-23);}.cls-10{stroke:url(#linear-gradient-34);}.cls-11{stroke:url(#linear-gradient-12);}.cls-12{stroke:url(#linear-gradient-20);}.cls-13{stroke:url(#linear-gradient);}.cls-38{fill:#c9ac8f;}.cls-14{stroke:url(#linear-gradient-2);}.cls-39{isolation:isolate;}.cls-15{stroke:url(#linear-gradient-26);}.cls-16{stroke:url(#linear-gradient-30);}.cls-17{stroke:url(#linear-gradient-27);}.cls-18{stroke:url(#linear-gradient-18);}.cls-19{stroke:url(#linear-gradient-10);}.cls-40{clip-path:url(#clippath-1);}.cls-20{stroke:url(#linear-gradient-14);}.cls-21{stroke:url(#linear-gradient-16);}.cls-22{stroke:url(#linear-gradient-32);}.cls-23{stroke:url(#linear-gradient-29);}.cls-24{stroke:url(#linear-gradient-33);}.cls-25{stroke:url(#linear-gradient-6);}.cls-41{opacity:.1;}.cls-42{clip-path:url(#clippath);}.cls-26{stroke:url(#linear-gradient-36);}.cls-27{stroke:url(#linear-gradient-4);}.cls-29{stroke:url(#linear-gradient-9);}.cls-30{stroke:url(#linear-gradient-31);}.cls-31{stroke:url(#linear-gradient-35);}.cls-32{stroke:url(#linear-gradient-15);}.cls-33{stroke:url(#linear-gradient-8);}.cls-34{stroke:url(#linear-gradient-28);}.cls-35{stroke:url(#linear-gradient-5);}.cls-43{mix-blend-mode:multiply;}.cls-36{stroke:url(#linear-gradient-11);}.cls-37{stroke:url(#linear-gradient-22);}</style><clipPath id="clippath"><rect class="cls-28" x="915.57" y="-1617.72" width="1228.4" height="1328.79"/></clipPath><linearGradient id="linear-gradient" x1="1037.76" y1="-809.02" x2="2316.65" y2="-809.02" gradientTransform="translate(-111.67 328.49) rotate(-4.49)" gradientUnits="userSpaceOnUse"><stop offset="0" stop-color="#863a8e"/><stop offset="1" stop-color="#863a8e"/></linearGradient><linearGradient id="linear-gradient-2" x1="1034.83" y1="-790.23" x2="2295.44" y2="-790.23" gradientTransform="translate(-111.67 328.49) rotate(-4.49)" xlink:href="#linear-gradient"/><linearGradient id="linear-gradient-3" x1="1031.3" y1="-771.38" x2="2274.22" y2="-771.38" gradientTransform="translate(-111.67 328.49) rotate(-4.49)" xlink:href="#linear-gradient"/><linearGradient id="linear-gradient-4" x1="1027.12" y1="-752.44" x2="2252.98" y2="-752.44" gradientTransform="translate(-111.67 328.49) rotate(-4.49)" xlink:href="#linear-gradient"/><clipPath id="clippath-1"><rect class="cls-28" x="855.8" y="-43.7" width="1228.4" height="1328.79"/></clipPath><linearGradient id="linear-gradient-5" x1="802.93" y1="190.88" x2="2774.07" y2="190.88" gradientTransform="translate(-111.68 328.49) rotate(-4.49)" xlink:href="#linear-gradient"/><linearGradient id="linear-gradient-6" x1="805.82" y1="217.28" x2="2746.4" y2="217.28" gradientTransform="translate(-111.68 328.49) rotate(-4.49)" xlink:href="#linear-gradient"/><linearGradient id="linear-gradient-7" x1="810.11" y1="239.67" x2="2721" y2="239.67" gradientTransform="translate(-111.68 328.49) rotate(-4.49)" xlink:href="#linear-gradient"/><linearGradient id="linear-gradient-8" x1="814.28" y1="262.04" x2="2695.73" y2="262.04" gradientTransform="translate(-111.68 328.49) rotate(-4.49)" xlink:href="#linear-gradient"/><linearGradient id="linear-gradient-9" x1="818.35" y1="284.38" x2="2670.59" y2="284.38" gradientTransform="translate(-111.68 328.49) rotate(-4.49)" xlink:href="#linear-gradient"/><linearGradient id="linear-gradient-10" x1="822.29" y1="306.67" x2="2645.61" y2="306.67" gradientTransform="translate(-111.68 328.49) rotate(-4.49)" xlink:href="#linear-gradient"/><linearGradient id="linear-gradient-11" x1="826.11" y1="328.93" x2="2620.8" y2="328.93" gradientTransform="translate(-111.68 328.49) rotate(-4.49)" xlink:href="#linear-gradient"/><linearGradient id="linear-gradient-12" x1="829.8" y1="351.13" x2="2596.19" y2="351.13" gradientTransform="translate(-111.68 328.49) rotate(-4.49)" xlink:href="#linear-gradient"/><linearGradient id="linear-gradient-13" x1="833.35" y1="373.28" x2="2571.8" y2="373.28" gradientTransform="translate(-111.68 328.49) rotate(-4.49)" xlink:href="#linear-gradient"/><linearGradient id="linear-gradient-14" x1="836.75" y1="395.37" x2="2547.68" y2="395.37" gradientTransform="translate(-111.68 328.49) rotate(-4.49)" xlink:href="#linear-gradient"/><linearGradient id="linear-gradient-15" x1="839.99" y1="417.38" x2="2523.87" y2="417.38" gradientTransform="translate(-111.68 328.49) rotate(-4.49)" xlink:href="#linear-gradient"/><linearGradient id="linear-gradient-16" x1="843.07" y1="439.31" x2="2500.42" y2="439.31" gradientTransform="translate(-111.68 328.49) rotate(-4.49)" xlink:href="#linear-gradient"/><linearGradient id="linear-gradient-17" x1="845.97" y1="461.13" x2="2477.4" y2="461.13" gradientTransform="translate(-111.68 328.49) rotate(-4.49)" xlink:href="#linear-gradient"/><linearGradient id="linear-gradient-18" x1="848.67" y1="482.83" x2="2454.92" y2="482.83" gradientTransform="translate(-111.68 328.49) rotate(-4.49)" xlink:href="#linear-gradient"/><linearGradient id="linear-gradient-19" x1="851.18" y1="504.39" x2="2433.1" y2="504.39" gradientTransform="translate(-111.68 328.49) rotate(-4.49)" xlink:href="#linear-gradient"/><linearGradient id="linear-gradient-20" x1="853.47" y1="525.85" x2="2411.79" y2="525.85" gradientTransform="translate(-111.68 328.49) rotate(-4.49)" xlink:href="#linear-gradient"/><linearGradient id="linear-gradient-21" x1="855.53" y1="547.11" x2="2390.48" y2="547.11" gradientTransform="translate(-111.68 328.49) rotate(-4.49)" xlink:href="#linear-gradient"/><linearGradient id="linear-gradient-22" x1="857.34" y1="568.12" x2="2369.16" y2="568.12" gradientTransform="translate(-111.68 328.49) rotate(-4.49)" xlink:href="#linear-gradient"/><linearGradient id="linear-gradient-23" x1="858.89" y1="588.78" x2="2347.8" y2="588.78" gradientTransform="translate(-111.68 328.49) rotate(-4.49)" xlink:href="#linear-gradient"/><linearGradient id="linear-gradient-24" x1="860.16" y1="608.98" x2="2326.42" y2="608.98" gradientTransform="translate(-111.68 328.49) rotate(-4.49)" xlink:href="#linear-gradient"/><linearGradient id="linear-gradient-25" x1="861.13" y1="628.52" x2="2304.97" y2="628.52" gradientTransform="translate(-111.68 328.49) rotate(-4.49)" xlink:href="#linear-gradient"/><linearGradient id="linear-gradient-26" x1="861.78" y1="647.06" x2="2283.47" y2="647.06" gradientTransform="translate(-111.68 328.49) rotate(-4.49)" xlink:href="#linear-gradient"/><linearGradient id="linear-gradient-27" x1="862.08" y1="663.95" x2="2261.92" y2="663.95" gradientTransform="translate(-111.68 328.49) rotate(-4.49)" xlink:href="#linear-gradient"/><linearGradient id="linear-gradient-28" x1="862.01" y1="677.31" x2="2240.36" y2="677.31" gradientTransform="translate(-111.68 328.49) rotate(-4.49)" xlink:href="#linear-gradient"/><linearGradient id="linear-gradient-29" x1="861.54" y1="684.36" x2="2218.8" y2="684.36" gradientTransform="translate(-111.68 328.49) rotate(-4.49)" xlink:href="#linear-gradient"/><linearGradient id="linear-gradient-30" x1="860.64" y1="699.46" x2="2197.41" y2="699.46" gradientTransform="translate(-111.68 328.49) rotate(-4.49)" xlink:href="#linear-gradient"/><linearGradient id="linear-gradient-31" x1="859.29" y1="718.13" x2="2176.29" y2="718.13" gradientTransform="translate(-111.67 328.49) rotate(-4.49)" xlink:href="#linear-gradient"/><linearGradient id="linear-gradient-32" x1="857.44" y1="736.82" x2="2155.14" y2="736.82" gradientTransform="translate(-111.67 328.49) rotate(-4.49)" xlink:href="#linear-gradient"/><linearGradient id="linear-gradient-33" x1="855.07" y1="755.56" x2="2133.96" y2="755.56" xlink:href="#linear-gradient"/><linearGradient id="linear-gradient-34" x1="852.14" y1="774.35" x2="2112.75" y2="774.35" gradientTransform="translate(-111.67 328.49) rotate(-4.49)" xlink:href="#linear-gradient"/><linearGradient id="linear-gradient-35" x1="848.6" y1="793.2" x2="2091.53" y2="793.2" gradientTransform="translate(-111.67 328.49) rotate(-4.49)" xlink:href="#linear-gradient"/><linearGradient id="linear-gradient-36" x1="844.43" y1="812.14" x2="2070.29" y2="812.14" gradientTransform="translate(-111.67 328.49) rotate(-4.49)" xlink:href="#linear-gradient"/></defs><g class="cls-39"><g id="BACKGROUND"><g class="cls-43"><g class="cls-42"><g class="cls-41"><path class="cls-13" d="M1031.83-1213.88c-350.34,135.08-204.38,206.96,15.21,330.79,116.31,65.58,265.9,163.92,335.35,216.62,56.42,42.81,117.02,55.28,137.41,90.52,49.99,86.4,17.34,188.52,19.55,295.13,1.84,88.73,17.81,183.3,153.43,256.3,21.06,11.34,42.72,19.17,65.14,24.96,75.39,19.49,141.7-10.09,206.55-29.19,89.94-26.49,157.48-54.99,212.72-80.16"/><path class="cls-14" d="M1039.34-1206.31c-350.38,157-220.92,245.95-9.16,361.93,114.9,62.93,263.03,145.15,346.65,197.99,67.18,42.46,130.93,65.54,149.51,105.71,44.7,96.62-1.89,203.74-5.17,309.75-2.7,87.09,15.79,176.24,154.51,243.35,21.21,10.26,42.88,16.83,64.91,21.39,71.87,14.89,136.95-10.87,199.77-33.29,87.22-31.13,157.18-70.39,216.04-102.15"/><path class="cls-6" d="M1046.84-1198.74c-350.42,178.92-237.47,284.88-33.53,393.08,113.5,60.22,259.99,126.35,357.95,179.37,77.82,42.11,144.7,75.4,161.62,120.89,39.48,106.17-21.04,219.05-29.89,324.37-7.19,85.53,13.82,169.33,155.6,230.4,21.38,9.21,43.05,14.52,64.68,17.82,68.37,10.41,132.14-11.63,193-37.39,84.43-35.74,156.88-85.79,219.35-124.14"/><path class="cls-27" d="M1054.35-1191.16c-708.3,405.91,408.78,493.45,485.06,721.04,55.4,209.74-219.81,425.99,102.07,556.44,180.31,63.72,343.91-85.36,473.34-173.38"/></g></g></g><g class="cls-43"><g class="cls-40"><g class="cls-41"><path class="cls-35" d="M761.9,148.08c-349.19-478.66,278.65-917.2,697.68-541.32,165.48,123.26,364.36,672.12,18.94,738.14-230.78,37.56-307.06-190.02-201.53-334.54,87.67-123.66,584.92-240.52,711.69-114.22,187.88,160.44,3.79,544.69,194.71,743.81,168.49,161.96,272.52-1.91,396.25,85.7,162.46,84.58,165.88,376.27,119.92,535.58"/><path class="cls-25" d="M769.41,155.65c-349.23-456.74,245.2-858.06,673.31-510.18,158.08,128.46,361.74,658.3,30.24,719.51-219.97,40.62-292.1-181.13-189.43-319.36,85.83-115.92,559.8-220.17,686.97-99.6,142.93,135.52,57.67,403.61,124.21,605.9,14.76,44.88,36.31,86.83,71.35,121.4,162.18,159.99,262.39,6.26,389.47,81.59,153.97,91.28,165.58,360.86,123.24,513.59"/><path class="cls-8" d="M776.91,163.23c-349.27-434.82,228.42-818.37,648.93-479.03,156.46,126.26,358.23,639.72,41.54,700.88-209.7,40.5-277.96-172.87-177.32-304.18C1373.39-27.8,1829.5-123.89,1952.32-4.08c137.41,134.05,56.74,395.26,125.29,592.95,15.12,43.6,36.6,84.3,71.12,117.83,159.21,154.62,257.94,5.8,382.7,77.49,151.62,87.12,165.28,345.46,126.55,491.6"/><path class="cls-33" d="M784.42,170.8c-349.31-412.9,211.64-778.69,624.56-447.88,154.84,124.05,354.72,621.13,52.84,682.26-199.43,40.38-263.94-164.74-165.22-289,80.73-101.6,519.06-189.44,637.53-70.36,131.89,132.57,55.79,386.9,126.38,580,15.47,42.31,36.88,81.77,70.89,114.25,156.22,149.26,253.49,5.34,375.92,73.39,149.27,82.96,164.98,330.06,129.87,469.61"/><path class="cls-29" d="M791.93,178.37c-349.35-390.98,194.88-739.03,600.18-416.74,153.23,121.84,351.2,602.53,64.14,663.63-189.16,40.26-249.95-156.68-153.11-273.81,78.16-94.54,498.69-174.09,612.81-55.74,126.38,131.06,54.81,378.53,127.46,567.05,15.81,41.02,37.17,79.23,70.66,110.68,153.23,143.89,249.04,4.88,369.15,69.28,146.93,78.79,164.68,314.66,133.18,447.62"/><path class="cls-19" d="M799.43,185.95c-349.4-369.07,178.12-699.37,575.81-385.59,151.62,119.63,347.68,583.93,75.44,645.01-178.9,40.13-235.97-148.69-141.01-258.63,75.61-87.54,478.33-158.77,588.1-41.12,120.87,129.54,53.81,370.14,128.54,554.1,16.14,39.73,37.45,76.7,70.43,107.11,150.22,138.53,244.6,4.41,362.37,65.18,144.59,74.62,164.38,299.26,136.49,425.63"/><path class="cls-36" d="M806.94,193.52C457.5-153.62,968.31-466.21,1358.37-160.92c150.01,117.41,344.15,565.32,86.74,626.38-168.64,40-222-140.78-128.9-243.45,73.09-80.6,457.96-143.46,563.38-26.5,115.36,127.99,52.77,361.74,129.62,541.16,16.47,38.44,37.73,74.17,70.2,103.54,147.2,133.17,240.17,3.93,355.6,61.08,142.26,70.43,164.08,283.85,139.81,403.64"/><path class="cls-11" d="M814.44,201.09C464.96-124.13,959.08-419.01,1341.5-122.2c148.41,115.18,340.61,546.7,98.04,607.76-158.39,39.87-208.05-132.98-116.8-228.27,70.62-73.74,437.6-128.17,538.66-11.88,109.87,126.42,51.7,353.33,130.7,528.21,16.78,37.15,38.01,71.63,69.97,99.97,144.17,127.81,235.74,3.44,348.82,56.98,139.93,66.24,163.78,268.45,143.12,381.65"/><path class="cls-4" d="M821.95,208.67C472.43-94.64,949.86-371.82,1324.64-83.48c146.81,112.95,337.06,528.07,109.34,589.13-148.14,39.72-194.1-125.29-104.69-213.09,68.2-66.98,417.24-112.9,513.94,2.74,104.38,124.83,50.6,344.91,131.79,515.26,17.09,35.86,38.28,69.1,69.74,96.4,141.13,122.46,231.31,2.95,342.05,52.87,137.61,62.04,163.48,253.05,146.44,359.66"/><path class="cls-20" d="M829.45,216.24C479.89-65.15,940.65-324.65,1307.77-44.76c145.22,110.71,333.5,509.42,120.64,570.5-137.91,39.57-180.14-117.74-92.59-197.91,65.87-60.32,396.9-97.65,489.22,17.36,98.91,123.21,49.46,336.49,132.87,502.31,17.39,34.57,38.55,66.57,69.51,92.82,138.07,117.12,226.89,2.45,335.27,48.77,135.3,57.82,163.18,237.65,149.75,337.67"/><path class="cls-32" d="M836.96,223.81C487.36-35.65,931.45-277.5,1290.9-6.04c143.63,108.47,329.91,490.77,131.94,551.88-127.68,39.42-166.14-110.34-80.48-182.73,63.64-53.79,376.56-82.42,464.5,31.98,93.45,121.57,48.27,328.06,133.95,489.36,17.68,33.28,38.84,64.01,69.28,89.25,135.08,111.67,222.47,1.93,328.5,44.67,132.98,53.6,162.88,222.25,153.07,315.67"/><path class="cls-21" d="M844.46,231.39C494.82-6.16,922.26-230.36,1274.03,32.68c142.04,106.21,326.21,471.79,143.24,533.25-117.54,39.06-152.08-103.1-68.38-167.55,61.55-47.4,356.23-67.22,439.78,46.6,88.01,119.9,47.04,319.64,135.03,476.42,17.96,31.99,39.05,61.54,69.05,85.68,131.74,106.64,218.05,1.41,321.72,40.56,130.68,49.35,162.58,206.85,156.38,293.68"/><path class="cls-7" d="M851.97,238.96c-349.68-215.63,61.12-422.2,405.19-167.56,140.46,103.95,322.74,453.58,154.54,514.63-107.25,39.2-137.89-96.04-56.27-152.37,59.66-41.17,335.92-52.04,415.06,61.21,82.59,118.2,45.77,311.22,136.12,463.47,18.22,30.71,39.35,58.97,68.82,82.11,128.78,101.12,213.64,.87,314.95,36.46,128.37,45.09,162.28,191.44,159.69,271.69"/><path class="cls-18" d="M859.47,246.53c-349.73-193.71,44.45-382.67,380.82-136.42,138.89,101.68,318.99,434.67,165.84,496-97.13,38.89-112.55-74.49-44.17-137.19,63.78-23.06,315.63-36.89,390.34,75.83,77.19,116.47,44.44,302.8,137.2,450.52,18.48,29.42,39.6,56.44,68.59,78.54,125.65,95.8,209.22,.32,308.17,32.36,126.07,40.82,161.98,176.04,163.01,249.7"/><path class="cls-3" d="M866.98,254.11c-349.77-171.79,27.79-343.16,356.45-105.27,137.33,99.4,315.26,415.93,177.14,477.38-87,38.7-97.59-65.6-32.06-122.01,61.94-15.32,295.36-21.77,365.62,90.45,71.82,114.71,43.06,294.4,138.28,437.57,18.72,28.14,39.86,53.91,68.36,74.97,122.5,90.5,204.81-.24,301.4,28.26,123.77,36.52,161.68,160.64,166.32,227.71"/><path class="cls-12" d="M874.49,261.68c-349.81-149.87,11.14-303.68,332.07-74.12,135.77,97.11,311.46,397.17,188.44,458.75-76.92,38.51-82.63-56.72-19.96-106.83,60.1-7.58,275.11-6.67,340.9,105.07s41.62,286.03,139.36,424.62c18.95,26.87,40.1,51.38,68.13,71.39,119.32,85.21,200.4-.83,294.62,24.15,121.47,32.2,161.38,145.24,169.64,205.72"/><path class="cls-2" d="M881.99,269.25c-349.85-127.95-5.5-264.21,307.7-42.97,134.21,94.8,307.56,378.4,199.74,440.13-66.91,38.31-67.67-47.83-7.85-91.64,58.27,.16,254.9,8.4,316.18,119.69,61.18,111.11,40.12,277.67,140.44,411.68,19.16,25.6,40.35,48.85,67.9,67.82,116.12,79.94,195.98-1.43,287.85,20.05,119.17,27.86,161.08,129.84,172.95,183.73"/><path class="cls-37" d="M889.5,276.83c-349.89-106.03-22.13-224.77,283.33-11.83,132.67,92.49,303.52,359.62,211.04,421.5-56.98,38.13-52.71-38.94,4.25-76.46,56.43,7.89,234.73,23.45,291.46,134.31,55.91,109.27,38.56,269.36,141.53,398.73,19.37,24.34,40.58,46.33,67.67,64.25,112.89,74.68,191.57-2.04,281.07,15.95,116.86,23.49,160.78,114.43,176.27,161.74"/><path class="cls-9" d="M897,284.4c-349.93-84.11-38.74-185.36,258.95,19.32,131.13,90.16,299.3,340.9,222.34,402.87-47.18,38-37.74-30.06,16.36-61.28,54.59,15.63,214.6,38.47,266.74,148.93,50.69,107.4,36.93,261.09,142.61,385.78,19.56,23.08,40.81,43.81,67.44,60.68,109.63,69.45,187.14-2.68,274.3,11.84,114.54,19.09,160.48,99.03,179.58,139.75"/><path class="cls-1" d="M904.51,291.97c-349.97-62.19-55.35-145.97,234.58,50.47,129.6,87.81,294.85,322.32,233.64,384.25-37.53,37.97-22.78-21.17,28.46-46.1,52.75,23.37,194.53,53.47,242.02,163.55,45.52,105.51,35.25,252.88,143.69,372.83,19.74,21.84,41.04,41.3,67.21,57.11,106.35,64.24,182.71-3.34,267.52,7.74,112.22,14.66,160.18,83.63,182.89,117.76"/><path class="cls-5" d="M912.01,299.55c-350.01-40.27-71.94-106.61,210.2,81.61,128.08,85.44,290.19,304.06,244.94,365.62-28.04,38.16-7.82-12.28,40.57-30.92,50.92,31.11,174.51,68.45,217.3,178.17,40.41,103.61,33.49,244.73,144.77,359.88,19.91,20.61,41.26,38.79,66.98,53.54,103.03,59.07,178.26-4.02,260.75,3.64,109.88,10.2,159.88,68.23,186.21,95.77"/><path class="cls-15" d="M919.52,307.12c-350.05-18.35-88.52-67.28,185.83,112.76,126.57,83.06,285.46,286.37,256.24,347-18.66,38.72,7.14-3.4,52.67-15.74,49.08,38.85,154.56,83.41,192.58,192.79,35.35,101.69,31.68,236.65,145.86,346.94,20.07,19.39,41.47,36.29,66.75,49.96,99.68,53.92,173.8,3.84,253.97-.46,107.52-5.78,159.58,52.83,189.52,73.77"/><path class="cls-17" d="M927.02,314.7c-350.1,3.57-105.1-27.98,161.46,143.91,125.07,80.65,281.08,269.42,267.54,328.37-9.13,39.76,22.1,5.49,64.78-.56,47.24,46.59,134.69,98.37,167.87,207.41,30.36,99.77,29.81,228.67,146.94,333.99,20.23,18.19,41.67,33.79,66.52,46.39,96.3,48.82,169.61,2.32,247.2-4.57,104.73-9.3,159.28,37.43,192.84,51.78"/><path class="cls-34" d="M934.53,322.27c-350.14,25.49-121.66,11.28,137.08,175.05,123.58,78.22,277.56,252.98,278.85,309.75,.93,41.13,37.07,14.38,76.88,14.62,45.4,54.33,114.9,113.33,143.15,222.03,25.43,97.85,27.89,220.79,148.02,321.04,20.37,17,41.86,31.31,66.29,42.82,92.88,43.77,165.35,.75,240.42-8.67,101.97-12.8,158.98,22.02,196.15,29.79"/><path class="cls-23" d="M942.03,329.84c-350.18,47.41-138.21,50.5,112.71,206.2,122.1,75.76,275.01,236.38,290.15,291.12,11.71,42.38,52.03,23.26,88.99,29.8,43.57,62.06,95.19,128.3,118.43,236.65,20.58,95.95,25.92,213.03,149.1,308.09,20.51,15.83,42.05,28.84,66.06,39.25,89.43,38.77,160.26-6.95,233.65-12.77,100.26-7.96,158.68,6.62,199.47,7.8"/><path class="cls-16" d="M949.54,337.42c-350.22,69.33-154.76,89.69,88.33,237.35,120.63,73.27,272.96,219.08,301.45,272.49,22.98,43.1,66.99,32.15,101.09,44.98,41.73,69.8,75.58,143.29,93.71,251.27,15.79,94.08,23.92,205.38,150.19,295.14,20.65,14.68,42.23,26.39,65.83,35.68,85.95,33.83,155.69-7.72,226.87-16.88,97.76-12.57,158.38-8.78,202.78-14.19"/><path class="cls-30" d="M957.05,344.99c-350.26,91.24-171.31,128.82,63.96,268.49,119.17,70.75,270.89,201.07,312.75,253.87,34.31,43.28,81.95,41.04,113.2,60.16,39.89,77.54,56.07,158.31,68.99,265.89,11.07,92.24,21.89,197.88,151.27,282.2,20.78,13.54,42.4,23.95,65.6,32.1,82.45,28.96,151.07-8.51,220.1-20.98,95.21-17.2,158.08-24.18,206.09-36.18"/><path class="cls-22" d="M964.55,352.56c-350.3,113.16-187.84,167.92,39.59,299.64,117.73,68.19,268.54,182.61,324.05,235.24,45.47,43.12,96.92,49.92,125.3,75.34,38.05,85.28,36.66,173.38,44.27,280.51,6.42,90.45,19.85,190.52,152.35,269.25,20.92,12.43,42.56,21.55,65.37,28.53,78.92,24.18,146.41-9.3,213.32-25.08,92.61-21.85,157.78-39.58,209.41-58.17"/><path class="cls-24" d="M972.06,360.14c-350.34,135.08-204.38,206.96,15.21,330.79,116.31,65.58,265.9,163.92,335.35,216.62,56.42,42.81,117.02,55.28,137.41,90.52,49.99,86.4,17.34,188.52,19.55,295.13,1.84,88.73,17.81,183.3,153.43,256.3,21.06,11.34,42.72,19.17,65.14,24.96,75.39,19.49,141.7-10.09,206.55-29.19,89.94-26.49,157.48-54.99,212.72-80.16"/><path class="cls-10" d="M979.56,367.71c-350.38,157-220.92,245.95-9.16,361.93,114.9,62.93,263.03,145.15,346.65,197.99,67.18,42.46,130.93,65.54,149.51,105.71,44.7,96.62-1.89,203.74-5.17,309.75-2.7,87.09,15.79,176.24,154.51,243.35,21.21,10.26,42.88,16.83,64.91,21.39,71.87,14.89,136.95-10.87,199.77-33.29,87.22-31.13,157.18-70.39,216.04-102.15"/><path class="cls-31" d="M987.07,375.28c-350.42,178.92-237.47,284.88-33.53,393.08,113.5,60.22,259.99,126.35,357.95,179.37,77.82,42.11,144.7,75.4,161.62,120.89,39.48,106.17-21.04,219.05-29.89,324.37-7.19,85.53,13.82,169.33,155.6,230.4,21.38,9.21,43.05,14.52,64.68,17.82,68.37,10.41,132.14-11.63,193-37.39,84.43-35.74,156.88-85.79,219.35-124.14"/><path class="cls-26" d="M994.57,382.86c-708.3,405.91,408.78,493.45,485.06,721.04,55.4,209.74-219.81,425.99,102.07,556.44,180.31,63.72,343.91-85.36,473.34-173.38"/></g></g></g></g><g id="DESIGN"><g><path class="cls-38" d="M447.8,392.52c-.2,0-.4,0-.6-.01-5.12-.21-9.69-2.98-12.23-7.43l-18.34-32.17c-2.55-4.47-2.57-10.03-.06-14.52l22.24-39.73c2.69-4.82,7.8-7.64,13.31-7.54,5.51,.16,10.44,3.34,12.85,8.31l18.76,38.65c2.3,4.74,1.89,10.4-1.08,14.75l-22.65,33.26c-2.77,4.07-7.29,6.45-12.18,6.45Zm-18.02-46.93l18.03,31.62,22.3-32.74-18.44-37.99-21.89,39.1Z"/><path class="cls-38" d="M581.13,608.89c-32.64,0-62.77-16-81.07-43.23l-50.06-74.48-50.06,74.48c-18.89,28.1-50.35,44.25-84.2,43.18-33.84-1.06-64.25-19.14-81.34-48.36l-109.68-187.52c-5.8-9.92-5.85-21.78-.13-31.75,5.71-9.96,15.98-15.91,27.47-15.91h170.24c27.19,0,52.48,13.47,67.65,36.04l60.06,89.36,60.06-89.36c15.17-22.57,40.46-36.04,67.65-36.04h170.24c11.49,0,21.76,5.95,27.47,15.91,5.71,9.96,5.66,21.83-.13,31.75l-109.68,187.52c-17.09,29.22-47.5,47.3-81.34,48.36-1.04,.03-2.09,.05-3.13,.05Zm-117.53-137.95l55.2,82.12c14.53,21.61,38.78,34.04,64.76,33.21,26.03-.82,49.41-14.72,62.56-37.2l109.68-187.52c2.4-4.1,.83-7.74,.04-9.12-.79-1.37-3.13-4.57-7.89-4.57h-170.24c-19.66,0-37.95,9.74-48.91,26.06l-65.2,97Zm-311.55-123.06c-4.75,0-7.1,3.2-7.89,4.57-.79,1.37-2.36,5.01,.04,9.12l109.68,187.52c13.15,22.48,36.53,36.38,62.56,37.2,26.04,.76,50.24-11.61,64.76-33.21l55.2-82.12-65.2-97c-10.97-16.32-29.25-26.06-48.91-26.06H152.05Z"/><path class="cls-38" d="M450,606.49c-38.04,0-72.45-19.47-92.05-52.07l-127.44-212c-3.21-5.34-1.48-12.28,3.86-15.49,5.34-3.22,12.28-1.48,15.49,3.86l127.44,212c15.48,25.75,42.66,41.13,72.71,41.13s57.23-15.37,72.71-41.13l127.44-212c3.21-5.34,10.15-7.08,15.49-3.86,5.34,3.21,7.07,10.15,3.86,15.49l-127.44,212c-19.6,32.6-54.01,52.07-92.05,52.07Z"/></g></g></g></svg>